<svg xmlns="http://www.w3.org/2000/svg" viewBox="0 0 52.31 35.59"><defs><style>.cls-1{fill:#fff;}</style></defs><title>mail</title><g id="Ebene_2" data-name="Ebene 2"><g id="OBJECTS"><path class="cls-1" d="M43.09,6.92,26.15,21.84,9.21,6.92A1.63,1.63,0,0,0,7.06,9.36l18,15.87a1.61,1.61,0,0,0,2.15,0l18-15.87a1.63,1.63,0,1,0-2.16-2.44Z"/><path class="cls-1" d="M47.42,0H4.88A4.89,4.89,0,0,0,0,4.88V30.7a4.89,4.89,0,0,0,4.88,4.89H47.42a4.89,4.89,0,0,0,4.89-4.89V4.88A4.89,4.89,0,0,0,47.42,0Zm1.63,30.7a1.63,1.63,0,0,1-1.63,1.63H4.88A1.63,1.63,0,0,1,3.25,30.7V4.88A1.63,1.63,0,0,1,4.88,3.25H47.42a1.63,1.63,0,0,1,1.63,1.63Z"/></g></g></svg>